<svg xmlns="http://www.w3.org/2000/svg"  viewBox="0 0 16 16" width="16px" height="16px"><path d="M12.95,9.463c-0.016,0.033-0.048,0.059-0.087,0.061	c-0.857,0.1-1.767-0.02-2.117-0.076c-0.588-0.591-1.221-1.249-1.689-1.823c-0.049-0.06-0.049-0.145-0.005-0.205	c0.665-0.94,1.276-1.685,1.536-1.98c0.737-0.163,1.473-0.307,1.969-0.327c0.039-0.003,0.073,0.015,0.095,0.047	c0.641,0.899,1.099,1.76,1.247,2.076C13.603,8.037,13.249,8.841,12.95,9.463z M12.134,10.985c-0.473,0.799-0.832,1.281-0.948,1.428	c-0.155,0.224-0.555,0.803-1.172,1.389c-0.039,0.039-0.091,0.059-0.147,0.061c-0.773,0.032-1.493-0.023-1.772-0.084	c-0.237-0.099-0.791-0.349-1.444-0.715c-0.056-0.032-0.089-0.093-0.085-0.159c0.035-0.512,0.195-1.24,0.337-2.011	c0.351-0.624,0.715-1.333,1.092-1.917c0.04-0.061,0.116-0.091,0.184-0.071c1.131,0.312,2.115,0.548,2.511,0.64	c0.545,0.639,1.073,1.087,1.428,1.365C12.143,10.93,12.147,10.961,12.134,10.985z M5.293,12.097	c-0.056,0.035-0.131,0.032-0.185-0.007c-0.492-0.351-1.08-0.803-1.568-1.264C3.25,10.33,3.027,9.691,2.871,9.147	c-0.011-0.035-0.001-0.072,0.023-0.1c0.547-0.681,1.207-1.221,1.483-1.427c0.62,0.271,1.335,0.509,1.956,0.719	c0.065,0.023,0.111,0.08,0.117,0.147c0.087,1.121,0.291,2.028,0.344,2.373C6.562,11.111,5.951,11.683,5.293,12.097z M2.558,7.683	c-0.081-0.529-0.135-1.084-0.14-1.337C2.405,5.758,2.497,5.237,2.606,4.754c0.016-0.079,0.056-0.149,0.115-0.205	c0.313-0.288,0.876-0.797,1.232-1.028c0.336-0.216,1.268-0.52,1.652-0.633c0.076-0.021,0.155,0.012,0.193,0.08	c0.047,0.081,0.095,0.164,0.147,0.244c0.303,0.476,0.635,0.885,0.776,1.063c-0.187,0.748-0.267,1.584-0.3,2.291	C6.415,6.631,6.374,6.687,6.311,6.713C5.339,7.095,4.606,7.397,4.355,7.51C3.69,7.541,3.053,7.655,2.622,7.731	C2.591,7.737,2.563,7.714,2.558,7.683z M7.463,2.554c0.025-0.04,0.071-0.068,0.117-0.075c1.001-0.133,1.916-0.153,2.267-0.143	c0.641,0.429,1.267,0.997,1.765,1.536c0.036,0.037,0.043,0.093,0.015,0.136c-0.357,0.564-0.875,1.103-1.104,1.34	c-0.843,0.2-1.739,0.495-2.464,0.736C7.99,6.107,7.911,6.081,7.867,6.019C7.318,5.21,6.966,4.517,6.831,4.259	C6.981,3.586,7.187,2.986,7.463,2.554z M14.145,9.193c-0.016,0.009-0.039-0.004-0.039-0.025c-0.041-0.829-0.116-1.636-0.159-1.931	c0.005-0.717-0.112-1.46-0.232-2.008c-0.004-0.02,0.015-0.039,0.033-0.035c0.672,0.139,0.887,0.392,0.887,0.392	c-0.353-0.804-0.867-1.411-1.424-1.869c-0.476-1.007-1.023-1.472-1.023-1.472c0.043,0.223,0.012,0.475-0.065,0.735	c-0.005,0.017-0.024,0.025-0.039,0.017c-0.912-0.449-1.855-0.657-2.219-0.708C9.322,2.021,8.727,1.844,8.243,1.71	C8.23,1.705,8.225,1.69,8.237,1.681c0.643-0.539,1.232-0.673,1.232-0.673C8.426,0.964,7.525,1.154,6.77,1.448	C5.647,1.356,4.931,1.553,4.931,1.553s0.309,0.376,0.432,0.585C5.378,2.162,5.37,2.194,5.345,2.213	C4.638,2.706,4.131,3.25,3.931,3.475C3.707,3.506,3.322,3.561,2.986,3.645C2.971,3.646,2.961,3.634,2.965,3.621	c0.339-0.811,0.707-1.26,0.707-1.26S1.502,3.915,1.089,6.71c0,0,0.18-0.497,0.784-1.248c0.008-0.008,0.024-0.007,0.028,0.004	C2.074,5.849,2.27,6.19,2.366,6.346C2.035,6.885,1.805,7.473,1.665,7.955C1.661,7.971,1.646,7.985,1.63,7.991	C1.129,8.185,1.001,8.367,1.001,8.367c0.077,0.269,0.231,0.532,0.424,0.78c0.017,0.02,0.025,0.047,0.024,0.075	c-0.053,1.193,0.328,1.979,0.328,1.979c0.085-0.419,0.255-0.821,0.468-1.201C2.253,9.982,2.274,9.981,2.287,9.99	c0.496,0.399,1.008,0.745,1.213,0.868c0.104,0.272,0.405,0.976,0.807,1.697c0.009,0.015,0.001,0.033-0.012,0.039	c-0.483,0.177-0.977,0.257-1.431,0.147c0,0,0.547,0.688,2.232,0.98c0.468,0.557,1.037,1.019,1.701,1.18c0,0-0.195-0.217-0.244-1.021	c0-0.016,0.013-0.031,0.029-0.031c0.416,0.007,0.98,0.016,1.497-0.023c0.183,0.147,0.583,0.467,0.973,0.671	c0.019,0.009,0.02,0.036,0.003,0.048c-0.687,0.419-1.143,0.455-1.143,0.455c3.103,0.067,4.967-1.976,4.967-1.976	c-0.511,0.34-1.101,0.551-1.689,0.677c-0.019,0.004-0.036-0.015-0.033-0.035c0.109-0.532,0.079-1.047,0.073-1.229	c0.735-0.183,1.377-0.515,1.852-0.855c0.009-0.007,0.021-0.007,0.032,0c0.197,0.139,0.369,0.293,0.537,0.553	c0,0,0.321-0.459,0.433-1.523c0.796-1.051,0.915-2.125,0.915-2.125C14.801,8.803,14.498,9.03,14.145,9.193z"/></svg>